<svg width="36" height="26" viewBox="0 0 36 26" fill="none" xmlns="http://www.w3.org/2000/svg">
<path d="M18.0733 25.1918H20.1647C20.1647 25.1918 20.7969 25.1043 21.1185 24.6695C21.416 24.2702 21.4051 23.5209 21.4051 23.5209C21.4051 23.5209 21.3635 20.0122 22.6673 19.4953C23.9515 18.9866 25.601 22.8864 27.3489 24.3878C28.6703 25.5227 29.6744 25.2739 29.6744 25.2739L34.3494 25.1918C34.3494 25.1918 36.7953 25.0031 35.6358 22.5993C35.5417 22.4024 34.9598 20.8217 32.1596 17.5728C29.2281 14.1707 29.6219 14.7232 33.1528 8.8407C35.3033 5.25817 36.163 3.07036 35.8939 2.13508C35.638 1.24355 34.0563 1.47874 34.0563 1.47874L28.7972 1.51702C28.7972 1.51702 28.4078 1.45139 28.1168 1.66743C27.8346 1.88075 27.653 2.373 27.653 2.373C27.653 2.373 26.8195 5.14604 25.7082 7.5034C23.3652 12.4779 22.4267 12.7405 22.0439 12.4314C21.1535 11.7122 21.3766 9.53806 21.3766 7.99566C21.3766 3.17429 21.9607 1.16424 20.2368 0.644635C19.6637 0.472346 19.2436 0.357486 17.7801 0.338343C15.9031 0.31373 14.3127 0.346547 13.4135 0.896233C12.8141 1.26269 12.3525 2.08038 12.6347 2.12687C12.9826 2.1843 13.7701 2.39215 14.188 3.10318C14.7283 4.01933 14.7086 6.08133 14.7086 6.08133C14.7086 6.08133 15.0193 11.756 13.9845 12.4615C13.2735 12.9456 12.3 11.9583 10.2108 7.44324C9.14103 5.13237 8.3316 2.57537 8.3316 2.57537C8.3316 2.57537 8.17627 2.09953 7.89844 1.84519C7.56154 1.53617 7.08901 1.43772 7.08901 1.43772L2.08801 1.476C2.08801 1.476 1.33765 1.50335 1.062 1.91083C0.816983 2.27455 1.04231 3.02387 1.04231 3.02387C1.04231 3.02387 4.95822 14.4743 9.39043 20.2474C13.4573 25.5391 18.0733 25.1918 18.0733 25.1918Z" fill="#1E88E5"/>
</svg>
