 <svg display="none" xmlns="http://www.w3.org/2000/svg">
  <symbol id="home" width="16" height="16" viewBox="0 0 16 16">
    <g>
      <path d="M15.6377 7.87724L8.84554 1.08857L8.39027 0.633296C8.28654 0.530247 8.14625 0.472412 8.00004 0.472412C7.85382 0.472412 7.71354 0.530247 7.6098 0.633296L0.362341 7.87724C0.256048 7.98312 0.172043 8.10922 0.115284 8.2481C0.0585254 8.38698 0.0301634 8.53582 0.0318722 8.68584C0.0389034 9.30459 0.553942 9.79853 1.17269 9.79853H1.91976V15.5237H14.0803V9.79853H14.8432C15.1438 9.79853 15.4268 9.68076 15.6395 9.46806C15.7442 9.36367 15.8272 9.23953 15.8836 9.10285C15.94 8.96616 15.9688 8.81964 15.9682 8.67177C15.9682 8.37294 15.8504 8.08994 15.6377 7.87724V7.87724ZM8.98441 14.2581H7.01566V10.6722H8.98441V14.2581ZM12.8147 8.53291V14.2581H10.1094V10.2503C10.1094 9.86181 9.79476 9.54716 9.40629 9.54716H6.59379C6.20531 9.54716 5.89066 9.86181 5.89066 10.2503V14.2581H3.18539V8.53291H1.49789L8.00179 2.03427L8.40785 2.44033L14.5039 8.53291H12.8147Z"/> 
    </g>
  </symbol>
  <symbol id="cart" width="16" height="16" viewBox="0 0 16 16">
  <g>
    <path d="M14.4202 10.9672H5.11549L5.58268 10.0156L13.3452 10.0016C13.6077 10.0016 13.8327 9.81406 13.8796 9.55469L14.9546 3.5375C14.9827 3.37969 14.9405 3.21719 14.8374 3.09375C14.7864 3.033 14.7228 2.98407 14.6511 2.95034C14.5793 2.91661 14.501 2.8989 14.4217 2.89844L4.54674 2.86562L4.46237 2.46875C4.40924 2.21562 4.18112 2.03125 3.92174 2.03125H1.50768C1.36139 2.03125 1.2211 2.08936 1.11766 2.1928C1.01423 2.29624 0.956116 2.43653 0.956116 2.58281C0.956116 2.7291 1.01423 2.86939 1.11766 2.97283C1.2211 3.07626 1.36139 3.13438 1.50768 3.13438H3.47487L3.84362 4.8875L4.75143 9.28281L3.58268 11.1906C3.52198 11.2725 3.48543 11.3698 3.47714 11.4714C3.46886 11.573 3.48918 11.675 3.5358 11.7656C3.62955 11.9516 3.81862 12.0688 4.02799 12.0688H5.00924C4.80005 12.3466 4.68706 12.685 4.68737 13.0328C4.68737 13.9172 5.40612 14.6359 6.29049 14.6359C7.17487 14.6359 7.89362 13.9172 7.89362 13.0328C7.89362 12.6844 7.77799 12.3453 7.57174 12.0688H10.0889C9.87974 12.3466 9.76675 12.685 9.76705 13.0328C9.76705 13.9172 10.4858 14.6359 11.3702 14.6359C12.2546 14.6359 12.9733 13.9172 12.9733 13.0328C12.9733 12.6844 12.8577 12.3453 12.6514 12.0688H14.4217C14.7249 12.0688 14.9733 11.8219 14.9733 11.5172C14.9724 11.3711 14.9137 11.2312 14.8101 11.1282C14.7065 11.0251 14.5663 10.9673 14.4202 10.9672V10.9672ZM4.77643 3.95312L13.7733 3.98281L12.8921 8.91719L5.82487 8.92969L4.77643 3.95312ZM6.29049 13.5266C6.01862 13.5266 5.79674 13.3047 5.79674 13.0328C5.79674 12.7609 6.01862 12.5391 6.29049 12.5391C6.56237 12.5391 6.78424 12.7609 6.78424 13.0328C6.78424 13.1638 6.73222 13.2894 6.63962 13.3819C6.54703 13.4745 6.42144 13.5266 6.29049 13.5266V13.5266ZM11.3702 13.5266C11.0983 13.5266 10.8764 13.3047 10.8764 13.0328C10.8764 12.7609 11.0983 12.5391 11.3702 12.5391C11.6421 12.5391 11.8639 12.7609 11.8639 13.0328C11.8639 13.1638 11.8119 13.2894 11.7193 13.3819C11.6267 13.4745 11.5011 13.5266 11.3702 13.5266V13.5266Z" />
  </g>
  </symbol>
  <symbol id="star" width="15" height="15" viewBox="0 0 15 15">
    <g>
      <path d="M14.6515 5.84188C14.5553 5.54443 14.2915 5.33317 13.9793 5.30503L9.73947 4.92005L8.06292 0.995904C7.9393 0.708315 7.65776 0.522156 7.34495 0.522156C7.03215 0.522156 6.75061 0.708315 6.62699 0.996577L4.95043 4.92005L0.709893 5.30503C0.398319 5.33384 0.135163 5.54443 0.0384405 5.84188C-0.0582818 6.13933 0.0310434 6.46559 0.266741 6.67125L3.47158 9.48191L2.52655 13.6448C2.45739 13.9509 2.5762 14.2673 2.83016 14.4508C2.96667 14.5495 3.12638 14.5997 3.28744 14.5997C3.4263 14.5997 3.56404 14.5622 3.68766 14.4883L7.34495 12.3024L11.0009 14.4883C11.2684 14.6492 11.6057 14.6345 11.8591 14.4508C12.1131 14.2667 12.2318 13.9502 12.1627 13.6448L11.2177 9.48191L14.4225 6.67181C14.6582 6.46559 14.7482 6.13989 14.6515 5.84188Z" fill="#FFC107"/>
    </g>
  </symbol>
  <symbol id="account" width="12" height="14" viewBox="0 0 12 14">
    <g>
      <path d="M11.4143 10.9312C11.1196 10.2331 10.6919 9.59891 10.155 9.06406C9.61971 8.52767 8.98564 8.10001 8.28778 7.80469C8.28153 7.80156 8.27528 7.8 8.26903 7.79688C9.24247 7.09375 9.87528 5.94844 9.87528 4.65625C9.87528 2.51562 8.14091 0.78125 6.00028 0.78125C3.85966 0.78125 2.12528 2.51562 2.12528 4.65625C2.12528 5.94844 2.7581 7.09375 3.73153 7.79844C3.72528 7.80156 3.71903 7.80312 3.71278 7.80625C3.01278 8.10156 2.38466 8.525 1.8456 9.06563C1.3092 9.60089 0.88154 10.235 0.586221 10.9328C0.296099 11.616 0.13963 12.3485 0.125283 13.0906C0.124866 13.1073 0.127791 13.1239 0.133886 13.1394C0.139981 13.1549 0.149122 13.1691 0.160771 13.181C0.17242 13.193 0.186342 13.2025 0.201715 13.2089C0.217088 13.2154 0.233602 13.2188 0.250283 13.2188H1.18778C1.25653 13.2188 1.31122 13.1641 1.31278 13.0969C1.34403 11.8906 1.82841 10.7609 2.68466 9.90469C3.5706 9.01875 4.74716 8.53125 6.00028 8.53125C7.25341 8.53125 8.42997 9.01875 9.31591 9.90469C10.1722 10.7609 10.6565 11.8906 10.6878 13.0969C10.6893 13.1656 10.744 13.2188 10.8128 13.2188H11.7503C11.767 13.2188 11.7835 13.2154 11.7989 13.2089C11.8142 13.2025 11.8281 13.193 11.8398 13.181C11.8514 13.1691 11.8606 13.1549 11.8667 13.1394C11.8728 13.1239 11.8757 13.1073 11.8753 13.0906C11.8597 12.3437 11.705 11.6172 11.4143 10.9312V10.9312ZM6.00028 7.34375C5.2831 7.34375 4.6081 7.06406 4.10028 6.55625C3.59247 6.04844 3.31278 5.37344 3.31278 4.65625C3.31278 3.93906 3.59247 3.26406 4.10028 2.75625C4.6081 2.24844 5.2831 1.96875 6.00028 1.96875C6.71747 1.96875 7.39247 2.24844 7.90028 2.75625C8.4081 3.26406 8.68778 3.93906 8.68778 4.65625C8.68778 5.37344 8.4081 6.04844 7.90028 6.55625C7.39247 7.06406 6.71747 7.34375 6.00028 7.34375Z"/>
    </g>
  </symbol>
</svg>